<svg xmlns="http://www.w3.org/2000/svg" version="1.1" xmlns:xlink="http://www.w3.org/1999/xlink" width="1000" height="1000"><style>
    #light-icon {
      display: inline;
    }
    #dark-icon {
      display: none;
    }

    @media (prefers-color-scheme: dark) {
      #light-icon {
        display: none;
      }
      #dark-icon {
        display: inline;
      }
    }
  </style><g id="light-icon"><svg xmlns="http://www.w3.org/2000/svg" version="1.1" xmlns:xlink="http://www.w3.org/1999/xlink" width="1000" height="1000"><g><g transform="matrix(28.571428571428573,0,0,28.571428571428573,0,114.28571428571428)"><svg xmlns="http://www.w3.org/2000/svg" version="1.1" xmlns:xlink="http://www.w3.org/1999/xlink" width="35" height="27"><svg width="35" height="27" viewBox="0 0 35 27" fill="none" xmlns="http://www.w3.org/2000/svg">
<path d="M3.78159 0V21H1V0H3.78159ZM12.5732 9.44711V11.726H3.17628V9.44711H12.5732ZM34.5 0V1V2.27884H3.17628V0H34.5Z" fill="#333333"></path>
<path d="M22.7981 23.8125L28.9856 6H32L24.226 27H22.0769L22.7981 23.8125ZM17.0144 6L23.1442 23.8125L23.9087 27H21.7596L14 6H17.0144Z" fill="#333333"></path>
<rect y="24" width="12" height="3" rx="1.5" fill="#333333"></rect>
</svg></svg></g></g></svg></g><g id="dark-icon"><svg xmlns="http://www.w3.org/2000/svg" version="1.1" xmlns:xlink="http://www.w3.org/1999/xlink" width="1000" height="1000"><g><g transform="matrix(28.571428571428573,0,0,28.571428571428573,0,114.28571428571428)"><svg xmlns="http://www.w3.org/2000/svg" version="1.1" xmlns:xlink="http://www.w3.org/1999/xlink" width="35" height="27"><svg width="35" height="27" viewBox="0 0 35 27" fill="none" xmlns="http://www.w3.org/2000/svg">
<path d="M3.78159 0V21H1V0H3.78159ZM12.5732 9.44711V11.726H3.17628V9.44711H12.5732ZM34.5 0V1V2.27884H3.17628V0H34.5Z" fill="#F0F0F0"></path>
<path d="M22.7981 23.8125L28.9856 6H32L24.226 27H22.0769L22.7981 23.8125ZM17.0144 6L23.1442 23.8125L23.9087 27H21.7596L14 6H17.0144Z" fill="#F0F0F0"></path>
<rect y="24" width="12" height="3" rx="1.5" fill="#F0F0F0"></rect>
</svg></svg></g></g></svg></g></svg>