<svg width="23" height="23" viewBox="0 0 23 23" fill="none" xmlns="http://www.w3.org/2000/svg">
<path d="M6.73828 13.5371V3.78125H10.1562V13.5371C10.1562 14.4876 9.93815 15.3112 9.50195 16.0078C9.07227 16.7044 8.48633 17.2448 7.74414 17.6289C7.00846 18.0065 6.18164 18.1953 5.26367 18.1953C4.31315 18.1953 3.4668 18.0358 2.72461 17.7168C1.98893 17.3978 1.40951 16.9062 0.986328 16.2422C0.569661 15.5781 0.361328 14.7318 0.361328 13.7031H3.79883C3.79883 14.1849 3.85417 14.5625 3.96484 14.8359C4.07552 15.1029 4.23828 15.2917 4.45312 15.4023C4.67448 15.5065 4.94466 15.5586 5.26367 15.5586C5.57617 15.5586 5.83984 15.4805 6.05469 15.3242C6.27604 15.1615 6.44531 14.9303 6.5625 14.6309C6.67969 14.3249 6.73828 13.9603 6.73828 13.5371ZM17.9883 13.5371V3.78125H21.4062V13.5371C21.4062 14.4876 21.1882 15.3112 20.752 16.0078C20.3223 16.7044 19.7363 17.2448 18.9941 17.6289C18.2585 18.0065 17.4316 18.1953 16.5137 18.1953C15.5632 18.1953 14.7168 18.0358 13.9746 17.7168C13.2389 17.3978 12.6595 16.9062 12.2363 16.2422C11.8197 15.5781 11.6113 14.7318 11.6113 13.7031H15.0488C15.0488 14.1849 15.1042 14.5625 15.2148 14.8359C15.3255 15.1029 15.4883 15.2917 15.7031 15.4023C15.9245 15.5065 16.1947 15.5586 16.5137 15.5586C16.8262 15.5586 17.0898 15.4805 17.3047 15.3242C17.526 15.1615 17.6953 14.9303 17.8125 14.6309C17.9297 14.3249 17.9883 13.9603 17.9883 13.5371Z" fill="white"/>
<path d="M1.02557 16.4706L21.4398 6.9513L21.5491 8.47711L2.00002 17.5L1.02557 16.4706Z" fill="#333333"/>
</svg>
