<svg width="100" height="100" viewBox="0 0 100 100" fill="none" xmlns="http://www.w3.org/2000/svg">
<path d="M72.3381 33.2616C72.3381 38.4308 71.0919 43.2769 68.5996 47.8C66.1996 52.3231 62.3689 55.9692 57.1073 58.7385C51.9381 61.5077 45.3842 62.8923 37.4457 62.8923H21.2457V100H1.8611V3.35388H37.4457C44.9227 3.35388 51.2919 4.64619 56.5535 7.23081C61.815 9.81542 65.7381 13.3693 68.3227 17.8923C70.9996 22.4154 72.3381 27.5385 72.3381 33.2616ZM36.615 47.2462C41.9688 47.2462 45.9381 46.0461 48.5227 43.6462C51.1073 41.1538 52.3996 37.6923 52.3996 33.2616C52.3996 23.8462 47.1381 19.1385 36.615 19.1385H21.2457V47.2462H36.615Z" fill="#3A3F45"/>
<path fill-rule="evenodd" clip-rule="evenodd" d="M92.1396 45.9704L92.1542 45.9438C94.3327 41.99 95.415 37.7823 95.415 33.2616C95.415 28.1645 94.2308 23.729 91.9358 19.8513L91.9208 19.826L91.9065 19.8006C89.7496 16.0265 86.4419 12.9727 81.7808 10.6829C77.1719 8.41888 71.415 7.20004 64.3689 7.20004H32.6304V96.1538H44.3227V59.0462H64.3689C71.8877 59.0462 77.7662 57.7312 82.2142 55.3481L82.2388 55.335C86.9296 52.8662 90.1431 49.7323 92.1254 45.9973L92.1396 45.9704ZM95.2458 17.8923C92.6612 13.3693 88.7381 9.81542 83.4765 7.23081C78.215 4.64619 71.8458 3.35388 64.3689 3.35388H28.7842V100H48.1688V62.8923H64.3689C72.3073 62.8923 78.8612 61.5077 84.0304 58.7385C89.2919 55.9692 93.1227 52.3231 95.5227 47.8C98.015 43.2769 99.2612 38.4308 99.2612 33.2616C99.2612 27.5385 97.9227 22.4154 95.2458 17.8923ZM78.0896 46.44L78.0631 46.4646C74.4754 49.7962 69.3735 51.0923 63.5381 51.0923H44.3227V15.2923H63.5381C69.2935 15.2923 74.3285 16.5705 77.9412 19.803C81.6354 23.1083 83.1688 27.8435 83.1688 33.2616C83.1688 38.4758 81.6208 43.0346 78.1154 46.415L78.0896 46.44ZM48.1688 47.2462H63.5381C68.8919 47.2462 72.8612 46.0461 75.4458 43.6462C78.0304 41.1538 79.3227 37.6923 79.3227 33.2616C79.3227 23.8462 74.0612 19.1385 63.5381 19.1385H48.1688V47.2462Z" fill="#3A3F45"/>
</svg>
