<svg width="1142" height="906" viewBox="0 0 1142 906" fill="none" xmlns="http://www.w3.org/2000/svg">
<path d="M745.377 0C745.377 0 732.677 97.6903 610.564 219.803C522.891 307.477 464.029 691.647 464.029 691.647H232.503L0 0H230.549L373.177 475.752L514.828 0H745.377Z" fill="white"/>
<path d="M878.236 905.589C795.525 905.589 727.142 886.378 673.087 847.951C619.683 808.875 590.701 751.888 586.142 676.993H816.691C819.948 716.719 837.532 736.585 869.444 736.585C881.167 736.585 890.936 733.981 898.751 728.769C907.218 722.908 911.451 714.116 911.451 702.393C911.451 686.113 902.659 673.086 885.075 663.317C867.49 652.897 840.137 641.174 803.015 628.148C758.728 612.518 721.932 597.213 692.625 582.234C663.969 567.255 639.221 545.437 618.38 516.781C597.54 488.125 587.445 451.329 588.096 406.391C588.096 361.454 599.493 323.355 622.288 292.094C645.733 260.182 677.32 236.085 717.047 219.803C757.426 203.521 802.689 195.38 852.837 195.38C937.502 195.38 1004.58 214.918 1054.08 253.995C1104.23 293.071 1130.6 348.103 1133.21 419.091H899.728C899.077 399.553 894.193 385.551 885.075 377.084C875.957 368.618 864.885 364.385 851.86 364.385C842.742 364.385 835.253 367.641 829.391 374.154C823.53 380.015 820.599 388.481 820.599 399.553C820.599 415.184 829.065 428.209 845.999 438.629C863.583 448.398 891.262 460.447 929.035 474.775C972.67 491.056 1008.49 506.687 1036.49 521.666C1065.15 536.645 1089.9 557.486 1110.74 584.188C1131.58 610.89 1142 644.43 1142 684.809C1142 727.143 1131.58 765.242 1110.74 799.106C1089.9 832.321 1059.61 858.37 1019.89 877.259C980.16 896.147 932.943 905.589 878.236 905.589Z" fill="white"/>
<path d="M195.38 733.677C195.38 733.206 195.38 732.97 195.527 732.823C195.673 732.677 195.909 732.677 196.38 732.677H487.451C487.923 732.677 488.158 732.677 488.305 732.823C488.451 732.97 488.451 733.206 488.451 733.677V878.212C488.451 878.684 488.451 878.92 488.305 879.066C488.158 879.212 487.923 879.212 487.451 879.212H196.38C195.909 879.212 195.673 879.212 195.527 879.066C195.38 878.92 195.38 878.684 195.38 878.212V733.677Z" fill="white"/>
</svg>
