<svg width="24" height="19" viewBox="0 0 24 19" fill="none" xmlns="http://www.w3.org/2000/svg">
<path d="M15.26 0C15.26 0 15 2 12.5 4.5C10.7051 6.29493 9.5 14.16 9.5 14.16H4.76L0 0H4.72L7.64 9.74L10.54 0H15.26Z" fill="#333333"/>
<path d="M4 16C4 15.5286 4 15.2929 4.14645 15.1464C4.29289 15 4.5286 15 5 15H9C9.4714 15 9.70711 15 9.85355 15.1464C10 15.2929 10 15.5286 10 16V17C10 17.4714 10 17.7071 9.85355 17.8536C9.70711 18 9.4714 18 9 18H5C4.5286 18 4.29289 18 4.14645 17.8536C4 17.7071 4 17.4714 4 17V16Z" fill="#333333"/>
<path d="M17.98 18.54C16.2867 18.54 14.8867 18.1467 13.78 17.36C12.6867 16.56 12.0933 15.3933 12 13.86H16.72C16.7867 14.6733 17.1467 15.08 17.8 15.08C18.04 15.08 18.24 15.0267 18.4 14.92C18.5733 14.8 18.66 14.62 18.66 14.38C18.66 14.0467 18.48 13.78 18.12 13.58C17.76 13.3667 17.2 13.1267 16.44 12.86C15.5333 12.54 14.78 12.2267 14.18 11.92C13.5933 11.6133 13.0867 11.1667 12.66 10.58C12.2333 9.99333 12.0267 9.24 12.04 8.32C12.04 7.4 12.2733 6.62 12.74 5.98C13.22 5.32667 13.8667 4.83333 14.68 4.5C15.5067 4.16667 16.4333 4 17.46 4C19.1933 4 20.5667 4.4 21.58 5.2C22.6067 6 23.1467 7.12667 23.2 8.58H18.42C18.4067 8.18 18.3067 7.89333 18.12 7.72C17.9333 7.54667 17.7067 7.46 17.44 7.46C17.2533 7.46 17.1 7.52667 16.98 7.66C16.86 7.78 16.8 7.95333 16.8 8.18C16.8 8.5 16.9733 8.76667 17.32 8.98C17.68 9.18 18.2467 9.42667 19.02 9.72C19.9133 10.0533 20.6467 10.3733 21.22 10.68C21.8067 10.9867 22.3133 11.4133 22.74 11.96C23.1667 12.5067 23.38 13.1933 23.38 14.02C23.38 14.8867 23.1667 15.6667 22.74 16.36C22.3133 17.04 21.6933 17.5733 20.88 17.96C20.0667 18.3467 19.1 18.54 17.98 18.54Z" fill="#333333"/>
</svg>
